<svg viewBox="0 0 72 72" xmlns="http://www.w3.org/2000/svg"><path d="m33.1 58h-3c-.6 0-1-.4-1-1v-20c0-.6.4-1 1-1h3c.6 0 1 .4 1 1v20c0 .6-.5 1-1 1z" fill="#d0cfce"/><path d="m38.4 35.4c1.7-2.9.7-6.5-2.2-8.2s-6.5-.7-8.2 2.2-.7 6.5 2.2 8.2 6.5.7 8.2-2.2" fill="#9b9b9a"/><path d="m30.6033 10.0777h9.9998v35.9992h-9.9998z" fill="#fff" transform="matrix(.5 -.866 .866 .5 -6.5143 44.8714)"/><path d="m30.6019 10.0787h9.9998v35.9992h-9.9998z" fill="#d0cfce" transform="matrix(.5 -.866 .866 .5 -6.5158 44.8707)"/><path d="m42.1 37.6-19.6-22.8-5 8.6z" fill="#9b9b9a"/><g style="fill:none;stroke:#000;stroke-linecap:round;stroke-linejoin:round;stroke-miterlimit:10;stroke-width:2"><path d="m30 36.4v20.6"/><path d="m34.1 39.4v17.6"/><path d="m28.8 29.9c-1.3 2.2-.7 4.9 1.2 6.4"/><path d="m30.6033 10.0777h9.9998v35.9992h-9.9998z" transform="matrix(.5 -.866 .866 .5 -6.5143 44.8714)"/><path d="m30.6033 10.0777h9.9998v35.9992h-9.9998z" transform="matrix(.5 -.866 .866 .5 -6.5143 44.8714)"/></g><path d="m52.7 34.5c1.4.8 1.9 2.7 1.1 4.1s-2.7 1.9-4.1 1.1z"/><path d="m54.2 37.1c0 1.7-1.4 3-3 3-.2 0-.4 0-.6-.1l2.9-5c.4.6.7 1.3.7 2.1z" fill="#d22f27"/></svg>